<svg version="1.1" xmlns="http://www.w3.org/2000/svg" viewBox="0 0 75.70412627727865 52.40338289700631" width="227.11237883183594" height="157.21014869101893">
  <g stroke-linecap="round" transform="translate(20.72925320648551 19.99757400228087) rotate(0 6.551755137147666 8.783549608653068)">
    <path d="M0 0 L13.1 0 L13.1 17.57 L0 17.57" stroke="none" stroke-width="0" fill="#fff"></path>
    <path d="M0 0 C2.9 0, 5.8 0, 13.1 0 M0 0 C3.43 0, 6.85 0, 13.1 0 M13.1 0 C13.1 4.5, 13.1 9.01, 13.1 17.57 M13.1 0 C13.1 5.89, 13.1 11.78, 13.1 17.57 M13.1 17.57 C9.16 17.57, 5.21 17.57, 0 17.57 M13.1 17.57 C8.84 17.57, 4.57 17.57, 0 17.57 M0 17.57 C0 13.67, 0 9.77, 0 0 M0 17.57 C0 11.46, 0 5.35, 0 0" stroke="#000000" stroke-width="1" fill="none"></path>
  </g>
  <g stroke-linecap="round">
    <g transform="translate(35.41307540278922 23.14540559673719) rotate(0 -8.544814782617436 -4.477643094400065)">
      <path d="M-2.25 -2.02 C-2.64 -2.4, -2.48 -3.49, -4.58 -4.31 C-6.67 -5.13, -13.13 -6.5, -14.84 -6.94 M-2.25 -2.02 C-2.64 -2.4, -2.48 -3.49, -4.58 -4.31 C-6.67 -5.13, -13.13 -6.5, -14.84 -6.94" stroke="#000000" stroke-width="1" fill="none"></path>
    </g>
  </g>
  <g stroke-linecap="round">
    <g transform="translate(20.872479850009995 17.128730620213886) rotate(0 0.19300244283147094 1.091860695160932)">
      <path d="M0 0 C0.06 0.36, 0.32 1.82, 0.39 2.18 M0 0 C0.06 0.36, 0.32 1.82, 0.39 2.18" stroke="#000000" stroke-width="1" fill="none"></path>
    </g>
  </g>
  <g transform="translate(26.094678495870085 23.548387096774192) rotate(0 2 4)">
    <text x="2" y="7" font-family="monospace" font-size="6.304909560723536px" fill="#364fc7" text-anchor="middle" style="white-space: pre;" direction="ltr">3</text>
  </g>
  <g transform="translate(24.981775270063736 10) rotate(0 1.5 3)">
    <text x="1.5" y="5" font-family="monospace" font-size="4.271067766941762px" fill="#364fc7" text-anchor="middle" style="white-space: pre;" direction="ltr">4</text>
  </g>
  <g stroke-linecap="round" transform="translate(10 24.139895211675736) rotate(0 6.8114773978572885 9.131743842665287)">
    <path d="M0 0 L13.62 0 L13.62 18.26 L0 18.26" stroke="none" stroke-width="0" fill="#fff"></path>
    <path d="M0 0 C4.92 0, 9.84 0, 13.62 0 M0 0 C3.15 0, 6.31 0, 13.62 0 M13.62 0 C13.62 6.17, 13.62 12.34, 13.62 18.26 M13.62 0 C13.62 6.2, 13.62 12.39, 13.62 18.26 M13.62 18.26 C8.44 18.26, 3.26 18.26, 0 18.26 M13.62 18.26 C9.43 18.26, 5.23 18.26, 0 18.26 M0 18.26 C0 13.27, 0 8.28, 0 0 M0 18.26 C0 11.01, 0 3.76, 0 0" stroke="#000000" stroke-width="1" fill="none"></path>
  </g>
  <g stroke-linecap="round">
    <g stroke-opacity="0.9" fill-opacity="0.9" transform="translate(25.246673086935743 27.661534628995284) rotate(0 -8.295314522530134 -4.683609487564013)">
      <path d="M-1.75 -2.43 C-2.15 -2.78, -1.99 -3.78, -4.17 -4.53 C-6.35 -5.28, -13.06 -6.53, -14.84 -6.94 M-1.75 -2.43 C-2.15 -2.78, -1.99 -3.78, -4.17 -4.53 C-6.35 -5.28, -13.06 -6.53, -14.84 -6.94" stroke="#000000" stroke-width="1" fill="none"></path>
    </g>
  </g>
  <g stroke-linecap="round">
    <g stroke-opacity="0.9" fill-opacity="0.9" transform="translate(10.692458851033962 20.99150359772237) rotate(0 0.2844954415169241 1.5120718768781387)">
      <path d="M0 0 C0.09 0.5, 0.47 2.52, 0.57 3.02 M0 0 C0.09 0.5, 0.47 2.52, 0.57 3.02" stroke="#000000" stroke-width="1" fill="none"></path>
    </g>
  </g>
  <g stroke-opacity="0.9" fill-opacity="0.9" transform="translate(14.80435591522496 28.225806451612897) rotate(0 2 4)">
    <text x="2" y="7" font-family="monospace" font-size="6.304909560723536px" fill="#364fc7" text-anchor="middle" style="white-space: pre;" direction="ltr">1</text>
  </g>
  <g stroke-opacity="0.9" fill-opacity="0.9" transform="translate(14.497904302321558 14.032258064516128) rotate(0 1.5 3)">
    <text x="1.5" y="5" font-family="monospace" font-size="4.271067766941762px" fill="#364fc7" text-anchor="middle" style="white-space: pre;" direction="ltr">2</text>
  </g>
  <g stroke-linecap="round">
    <g transform="translate(39.12275282214409 29.338953983834003) rotate(0 4.274193548387075 -0.08064516129032029)">
      <path d="M0 0 C1.42 -0.03, 7.12 -0.13, 8.55 -0.16 M0 0 C1.42 -0.03, 7.12 -0.13, 8.55 -0.16" stroke="#364fc7" stroke-width="1" fill="none"></path>
    </g>
    <g transform="translate(39.12275282214409 29.338953983834003) rotate(0 4.274193548387075 -0.08064516129032029)">
      <path d="M-0.08 -4.27 C-0.06 -3.24, -0.04 -2.21, 0 0 M-0.08 -4.27 C-0.05 -2.57, -0.02 -0.87, 0 0" stroke="#364fc7" stroke-width="1" fill="none"></path>
    </g>
    <g transform="translate(39.12275282214409 29.338953983834003) rotate(0 4.274193548387075 -0.08064516129032029)">
      <path d="M0.08 4.27 C0.06 3.24, 0.04 2.21, 0 0 M0.08 4.27 C0.05 2.57, 0.02 0.87, 0 0" stroke="#364fc7" stroke-width="1" fill="none"></path>
    </g>
    <g transform="translate(39.12275282214409 29.338953983834003) rotate(0 4.274193548387075 -0.08064516129032029)">
      <path d="M4.56 1.38 C5.52 1, 6.49 0.63, 8.55 -0.16 M4.56 1.38 C6.15 0.76, 7.73 0.15, 8.55 -0.16" stroke="#364fc7" stroke-width="1" fill="none"></path>
    </g>
    <g transform="translate(39.12275282214409 29.338953983834003) rotate(0 4.274193548387075 -0.08064516129032029)">
      <path d="M4.5 -1.55 C5.48 -1.21, 6.46 -0.88, 8.55 -0.16 M4.5 -1.55 C6.11 -1, 7.72 -0.44, 8.55 -0.16" stroke="#364fc7" stroke-width="1" fill="none"></path>
    </g>
  </g>
  <g stroke-linecap="round" transform="translate(51.25934147795215 22.204690417963675) rotate(2.4936349325139164 6.893800032205718 9.24210891699709)">
    <path d="M0 0 L13.79 0 L13.79 18.48 L0 18.48" stroke="none" stroke-width="0" fill="#fff"></path>
    <path d="M0 0 C3.09 0, 6.17 0, 13.79 0 M0 0 C4.15 0, 8.3 0, 13.79 0 M13.79 0 C13.79 4.96, 13.79 9.92, 13.79 18.48 M13.79 0 C13.79 6.74, 13.79 13.48, 13.79 18.48 M13.79 18.48 C9.75 18.48, 5.71 18.48, 0 18.48 M13.79 18.48 C9.72 18.48, 5.65 18.48, 0 18.48 M0 18.48 C0 14.44, 0 10.4, 0 0 M0 18.48 C0 12.27, 0 6.05, 0 0" stroke="#000000" stroke-width="1" fill="none"></path>
  </g>
  <g stroke-linecap="round">
    <g transform="translate(66.4065935620863 24.080883564052996) rotate(358.01731614998914 -8.355974567093654 -1.662183671597802)">
      <path d="M-2.68 -0.58 C-2.64 -0.94, -0.34 -2.61, -2.42 -2.74 C-4.5 -2.87, -13.04 -1.58, -15.16 -1.34 M-2.68 -0.58 C-2.64 -0.94, -0.34 -2.61, -2.42 -2.74 C-4.5 -2.87, -13.04 -1.58, -15.16 -1.34" stroke="#343a40" stroke-width="1" fill="none"></path>
    </g>
  </g>
  <g stroke-linecap="round">
    <g transform="translate(66.64437373647274 21.470417548212254) rotate(358.01731614998914 -8.068040750487512 -0.5104484051730935)">
      <path d="M-2.16 1.72 C-2.11 0.98, 0.29 -2.48, -1.88 -2.74 C-4.05 -3, -12.95 -0.34, -15.16 0.15 M-2.16 1.72 C-2.11 0.98, 0.29 -2.48, -1.88 -2.74 C-4.05 -3, -12.95 -0.34, -15.16 0.15" stroke="#343a40" stroke-width="1" fill="none"></path>
    </g>
  </g>
  <g stroke-linecap="round">
    <g transform="translate(64.02789331363874 39.52943050069739) rotate(358.01731614998914 1.007768358121666 -9.789749764610136)">
      <path d="M0 0 C0.34 -3.26, 1.68 -16.32, 2.02 -19.58 M0 0 C0.34 -3.26, 1.68 -16.32, 2.02 -19.58" stroke="#343a40" stroke-width="1" fill="none"></path>
    </g>
  </g>
  <g stroke-opacity="0.9" fill-opacity="0.9" transform="translate(56.15501088665974 27.048631403188836) rotate(0 2 4)">
    <text x="2" y="7" font-family="monospace" font-size="6.304909560723536px" fill="#364fc7" text-anchor="middle" style="white-space: pre;" direction="ltr">1</text>
  </g>
</svg>
